<?xml version="1.0" encoding="UTF-8"?>
<svg width="210px" height="40px" viewBox="0 0 210 40" version="1.1" xmlns="http://www.w3.org/2000/svg" xmlns:xlink="http://www.w3.org/1999/xlink">
    <!-- Generator: Sketch 50.2 (55047) - http://www.bohemiancoding.com/sketch -->
    <title>bitwala-logo</title>
    <desc>Created with Sketch.</desc>
    <defs></defs>
    <g id="other-stuff" stroke="none" stroke-width="1" fill="none" fill-rule="evenodd">
        <g id="bitwala-logo" fill="#FFFFFF">
            <path d="M77.4795654,11.3585606 L84.8996734,11.3585606 L84.8996734,5.08262392 L77.4795654,5.08262392 L77.4795654,11.3585606 Z M77.6630949,39.0201688 L84.7142188,39.0201688 L84.7142188,14.1012348 L77.6630949,14.1012348 L77.6630949,39.0201688 Z" id="Fill-2"></path>
            <path d="M105.668465,37.7732722 L105.668465,32.1018275 C104.58654,32.6902768 103.427609,32.9841806 102.19039,32.9841806 C100.674668,32.9841806 99.9174482,32.1775495 99.9174482,30.5687792 L99.9174482,19.9189381 L105.761513,19.9189381 L105.761513,13.8765843 L99.9174482,13.8765843 L99.9174482,7.50631606 L92.8663242,7.50631606 L92.8663242,13.8765843 L89.8984094,13.8765843 L89.8984094,19.9189381 L92.8663242,19.9189381 L92.8663242,31.7309184 C92.8663242,33.1850363 93.0440783,34.3876033 93.4008697,35.3334858 C93.7563778,36.2761597 94.2498538,37.0455716 94.8838646,37.6346625 C95.5178754,38.2218284 96.2763782,38.6325237 97.1580895,38.8661066 C98.0378757,39.0996895 99.0209775,39.2151975 100.102903,39.2151975 C101.277876,39.2151975 102.311031,39.0823633 103.210711,38.8199034 C104.107181,38.5555183 104.926647,38.2077108 105.668465,37.7732722" id="Fill-3"></path>
            <polyline id="Fill-4" points="146.502268 13.8687098 139.499272 13.8687098 135.416063 29.0246478 130.684725 13.7756617 124.609003 13.7756617 119.923227 28.9784445 115.934991 13.8687098 108.79146 13.8687098 116.446435 38.9743818 122.75574 38.9743818 127.623762 23.6772673 132.402587 38.9743818 138.755529 38.9743818 146.502268 13.8687098"></polyline>
            <path d="M170.803875,38.9712199 L170.803875,24.5134638 C170.803875,21.1374206 169.922164,18.5006288 168.160667,16.6120723 C166.397244,14.7190239 163.58334,13.77635 159.718954,13.77635 C157.614783,13.77635 155.822483,13.958596 154.338205,14.3327137 C152.853285,14.7049063 151.429969,15.1842647 150.070824,15.7714305 L151.832964,21.1682227 C152.977135,20.731859 154.067402,20.3981691 155.102483,20.1665113 C156.138205,19.9348536 157.336922,19.8174204 158.697991,19.8174204 C160.461414,19.8174204 161.789115,20.2069392 162.687511,20.9795596 C163.58334,21.7534634 164.031896,22.8867256 164.031896,24.3729291 L164.031896,24.7919665 C163.135425,24.4813783 162.215211,24.2356028 161.273179,24.0469397 C160.329222,23.8614851 159.224195,23.7703621 157.956173,23.7703621 C156.471253,23.7703621 155.118526,23.9314317 153.896066,24.2587044 C152.675531,24.5814852 151.624407,25.0704693 150.742696,25.7237314 C149.860985,26.3712181 149.17307,27.193892 148.679594,28.1859777 C148.183551,29.1780634 147.935851,30.3588122 147.935851,31.7205237 L147.935851,31.8116467 C147.935851,33.0539998 148.161092,34.1468342 148.609006,35.0895081 C149.057562,36.0347489 149.668471,36.8343212 150.441092,37.4843747 C151.213071,38.13507 152.119809,38.6234123 153.154889,38.9494017 C154.191253,39.2760328 155.29628,39.4364606 156.471253,39.4364606 C158.203874,39.4364606 159.672109,39.150899 160.878526,38.5784925 C162.084302,38.0041609 163.119382,37.2373159 163.984409,36.2760323 L163.984409,38.9712199 L170.803875,38.9712199 Z M164.125586,30.1855502 C164.125586,31.4882242 163.623126,32.5406307 162.617564,33.3472619 C161.611361,34.153893 160.275318,34.556246 158.604943,34.556246 C157.458847,34.556246 156.533499,34.2931444 155.822483,33.7650159 C155.110825,33.2375292 154.755317,32.4931441 154.755317,31.533144 L154.755317,31.4407375 C154.755317,30.3228764 155.188472,29.474534 156.054141,28.8828762 C156.919809,28.2969938 158.111467,27.998598 159.625264,27.998598 C160.492216,27.998598 161.302056,28.0871542 162.059917,28.2552825 C162.817778,28.4266195 163.505693,28.6525018 164.125586,28.9310046 L164.125586,30.1855502 Z" id="Fill-5"></path>
            <polygon id="Fill-6" points="175.529438 38.9747647 182.57992 38.9747647 182.57992 5.03721981 175.529438 5.03721981"></polygon>
            <path d="M209.307196,38.9489628 L209.307196,24.4912067 C209.307196,21.1151635 208.424202,18.4783716 206.662704,16.5898152 C204.899281,14.6967668 202.084735,13.7540929 198.220992,13.7540929 C196.118104,13.7540929 194.323879,13.9363389 192.838959,14.3104566 C191.354039,14.6826492 189.930723,15.1620075 188.570295,15.7491734 L190.333718,21.1459656 C191.479172,20.7096019 192.566873,20.375912 193.605162,20.1442542 C194.641526,19.9125964 195.837676,19.7951633 197.198104,19.7951633 C198.960243,19.7951633 200.292436,20.184682 201.188906,20.9573025 C202.084735,21.7312063 202.534575,22.8644685 202.534575,24.3506719 L202.534575,24.7697094 C201.638746,24.4591211 200.715965,24.2133457 199.77265,24.0246826 C198.831901,23.839228 197.724307,23.748105 196.458852,23.748105 C194.973932,23.748105 193.621205,23.9091745 192.398745,24.2364473 C191.17821,24.5592281 190.125162,25.0482121 189.24345,25.7014743 C188.361739,26.348961 187.675108,27.1716349 187.180348,28.1637206 C186.686231,29.1558063 186.43853,30.3365551 186.43853,31.6982666 L186.43853,31.7893896 C186.43853,33.0317427 186.661846,34.1245771 187.111685,35.067251 C187.5596,36.0124918 188.170509,36.8120641 188.943771,37.4621176 C189.714466,38.1128129 190.620563,38.6011552 191.656927,38.9271446 C192.69329,39.2537756 193.797034,39.4142035 194.973932,39.4142035 C196.704628,39.4142035 198.174788,39.1286419 199.381206,38.5562354 C200.585056,37.9819038 201.622062,37.2150588 202.485163,36.2537752 L202.485163,38.9489628 L209.307196,38.9489628 Z M202.625698,30.1632931 C202.625698,31.4659671 202.125163,32.5183736 201.119602,33.3250047 C200.112115,34.1316359 198.776072,34.5339889 197.106981,34.5339889 C195.961526,34.5339889 195.035537,34.2708872 194.323879,33.7427588 C193.612863,33.2152721 193.256071,32.470887 193.256071,31.5108868 L193.256071,31.4184804 C193.256071,30.3006193 193.691151,29.4522769 194.554895,28.8606191 C195.420563,28.2747367 196.61158,27.9763409 198.127943,27.9763409 C198.993612,27.9763409 199.804735,28.0648971 200.562596,28.2330254 C201.319816,28.4043623 202.006447,28.6302447 202.625698,28.9087474 L202.625698,30.1632931 Z" id="Fill-7"></path>
            <path d="M72.8614018,30.0470098 L72.8614018,29.9526783 C72.8614018,27.7849774 72.3204391,26.087651 71.2385138,24.8639075 C70.1559468,23.6382389 68.6716685,22.6692548 66.785679,21.9582386 C67.3728448,21.6476504 67.921508,21.2767412 68.4323102,20.8423027 C68.9424707,20.4065807 69.3903852,19.9047624 69.7766954,19.3310725 C70.1642891,18.7580243 70.4723105,18.1131044 70.7052517,17.4008049 C70.9362678,16.6885053 71.0524175,15.8677565 71.0524175,14.9359917 L71.0524175,14.8448687 C71.0524175,12.2716063 70.1026848,10.227114 68.2006524,8.70818331 C66.2986201,7.1886109 63.6778711,6.42818299 60.3377636,6.42818299 L45.2620396,6.42818299 L45.2620396,38.973856 L60.7080311,38.973856 C62.5330581,38.973856 64.1963738,38.7884014 65.6954114,38.4155672 C67.1950908,38.0433746 68.4791552,37.4870109 69.5450377,36.741984 C70.6128453,35.9988823 71.4310272,35.0684009 72.0047171,33.9524649 C72.5764819,32.836529 72.8614018,31.5357801 72.8614018,30.0470098 Z M63.9563738,16.1475426 C63.9563738,17.3546016 63.4924165,18.2305376 62.5645019,18.7734254 C61.6372291,19.3156714 60.3839668,19.587757 58.8079238,19.587757 L52.2201154,19.587757 L52.2201154,12.7073283 L59.2712394,12.7073283 C60.7863198,12.7073283 61.9452505,12.9935315 62.7505982,13.5665797 C63.5540208,14.1402696 63.9563738,14.9700024 63.9563738,16.0532111 L63.9563738,16.1475426 Z M65.765358,29.1633734 C65.765358,30.3717158 65.3161601,31.2636945 64.4196893,31.8367427 C63.5232186,32.4104326 62.2859992,32.6959942 60.7080311,32.6959942 L52.2201154,32.6959942 L52.2201154,25.5389878 L60.477015,25.5389878 C62.3334858,25.5389878 63.6778711,25.8559932 64.5120958,26.4912874 C65.3482456,27.1259399 65.765358,27.9858331 65.765358,29.0690418 L65.765358,29.1633734 Z" id="Fill-1"></path>
            <path d="M18.6135252,12.6050623 C23.7281108,12.6050623 27.8757265,16.7598904 27.8757265,21.8863248 C27.8757265,27.0127592 23.7281108,31.1717086 18.6135252,31.1717086 C13.49997,31.1717086 9.35132398,27.0127592 9.35132398,21.8863248 L9.35132398,5.51068704 L0.880420414,0.0653637638 L0.880420414,21.8863248 C0.880420414,31.7028466 8.82276185,39.6616734 18.6135252,39.6616734 C28.4073796,39.6616734 36.34663,31.7028466 36.34663,21.8863248 C36.34663,12.072894 28.4073796,4.11355206 18.6135252,4.11355206 C16.2154193,4.11355206 13.9244682,4.59265809 11.8375236,5.4586551 L11.8375236,15.5616101 C13.5277891,13.7425528 15.9377439,12.6050623 18.6135252,12.6050623 Z" id="Fill-9"></path>
        </g>
    </g>
</svg>