<?xml version="1.0" encoding="UTF-8"?>
<svg width="84px" height="19px" viewBox="0 0 84 19" version="1.1" xmlns="http://www.w3.org/2000/svg" xmlns:xlink="http://www.w3.org/1999/xlink">
    <!-- Generator: Sketch 52.6 (67491) - http://www.bohemiancoding.com/sketch -->
    <title>EU-EN</title>
    <desc>Created with Sketch.</desc>
    <g id="EU-EN" stroke="none" stroke-width="1" fill="none" fill-rule="evenodd">
        <g id="Group-2" transform="translate(2.000000, 3.000000)">
            <g id="Group">
                <polygon id="Fill-76" fill="#FFFFFE" points="0.1626 12.8574 18.866 12.8574 18.866 0.1532 0.1626 0.1532"></polygon>
                <polygon id="Fill-77" fill="#174489" points="0.5224 12.4908 18.5064 12.4908 18.5064 0.5014 0.5224 0.5014"></polygon>
                <polygon id="Fill-78" fill="#FFF101" points="9.13112 3.1137 9.51052 2.8367 9.88992 3.1137 9.74572 2.6659 10.13112 2.3889 9.65592 2.3889 9.51052 1.9357 9.36512 2.3895 8.89032 2.3889 9.27552 2.6659"></polygon>
                <polygon id="Fill-79" fill="#FFF101" points="7.16724 3.64144 7.54684 3.36444 7.92604 3.64144 7.78184 3.19364 8.16704 2.91664 7.69204 2.91664 7.54644 2.46264 7.40104 2.91704 6.92624 2.91664 7.31144 3.19364"></polygon>
                <polygon id="Fill-80" fill="#FFF101" points="6.10982 3.90296 5.96442 4.35716 5.48942 4.35676 5.87482 4.63356 5.73042 5.08156 6.10982 4.80456 6.48922 5.08156 6.34482 4.63356 6.73002 4.35676 6.25522 4.35676"></polygon>
                <polygon id="Fill-81" fill="#FFF101" points="5.58268 6.76604 5.96188 7.04284 5.81768 6.59504 6.20308 6.31804 5.72808 6.31804 5.58268 5.86424 5.43728 6.31924 4.96228 6.31804 5.34768 6.59504 5.20328 7.04284"></polygon>
                <polygon id="Fill-82" fill="#FFF101" points="6.25524 8.28538 6.10984 7.83158 5.96444 8.28578 5.48944 8.28538 5.87484 8.56238 5.73044 9.01018 6.10984 8.73258 6.48924 9.01018 6.34484 8.56238 6.73004 8.28538"></polygon>
                <polygon id="Fill-83" fill="#FFF101" points="7.69488 9.72504 7.54948 9.27164 7.40428 9.72544 6.92928 9.72504 7.31448 10.00204 7.17028 10.44984 7.54968 10.17284 7.92888 10.44984 7.78488 10.00204 8.17008 9.72504"></polygon>
                <polygon id="Fill-84" fill="#FFF101" points="9.65622 10.24672 9.51082 9.79292 9.36562 10.24732 8.89062 10.24672 9.27582 10.52372 9.13162 10.97152 9.51102 10.69452 9.89022 10.97152 9.74582 10.52372 10.13142 10.24672"></polygon>
                <polygon id="Fill-85" fill="#FFF101" points="11.61754 9.72504 11.47234 9.27164 11.32674 9.72544 10.85214 9.72504 11.23714 10.00204 11.09294 10.44984 11.47234 10.17284 11.85194 10.44984 11.70714 10.00204 12.09274 9.72504"></polygon>
                <polygon id="Fill-86" fill="#FFF101" points="13.05768 8.28538 12.91208 7.83158 12.76648 8.28578 12.29188 8.28538 12.67728 8.56238 12.53268 9.01018 12.91208 8.73258 13.29148 9.01018 13.14688 8.56238 13.53228 8.28538"></polygon>
                <polygon id="Fill-87" fill="#FFF101" points="14.05396 6.31254 13.57896 6.31254 13.43316 5.85874 13.28816 6.31314 12.81296 6.31254 13.19836 6.58954 13.05436 7.03734 13.43316 6.75994 13.81276 7.03734 13.66856 6.58954"></polygon>
                <polygon id="Fill-88" fill="#FFF101" points="12.53258 5.07562 12.91198 4.79862 13.29158 5.07562 13.14698 4.62782 13.53218 4.35122 13.05758 4.35122 12.91198 3.89742 12.76638 4.35182 12.29178 4.35122 12.67718 4.62782"></polygon>
                <polygon id="Fill-89" fill="#FFF101" points="11.4779 2.46332 11.3327 2.91752 10.8575 2.91672 11.2425 3.19392 11.0983 3.64192 11.4783 3.36452 11.8573 3.64192 11.7131 3.19392 12.0987 2.91672 11.6231 2.91672"></polygon>
            </g>
            <text id="Co-funded-by-the-Hor" font-family="ArialMT, Arial" font-size="3" font-weight="normal" fill="#FFFFFE">
                <tspan x="21.4" y="6">Co-funded by the Horizon 2020 programme </tspan>
                <tspan x="21.4" y="10.0981445">of the European Union</tspan>
            </text>
        </g>
    </g>
</svg>