<?xml version="1.0" encoding="UTF-8"?>
<svg width="159px" height="52px" viewBox="0 0 159 52" version="1.1" xmlns="http://www.w3.org/2000/svg" xmlns:xlink="http://www.w3.org/1999/xlink">
    <!-- Generator: Sketch 51.3 (57544) - http://www.bohemiancoding.com/sketch -->
    <title>Solaris_EmpoweredBy_Lockup_onblack</title>
    <desc>Created with Sketch.</desc>
    <defs>
        <linearGradient x1="1669.02517%" y1="76.9048105%" x2="-34.7439937%" y2="48.5580787%" id="linearGradient-1">
            <stop stop-color="#E93A25" offset="26%"></stop>
            <stop stop-color="#EA4128" offset="35%"></stop>
            <stop stop-color="#EE5531" offset="48%"></stop>
            <stop stop-color="#F16839" offset="58%"></stop>
            <stop stop-color="#F26F35" offset="69%"></stop>
            <stop stop-color="#F5832C" offset="86%"></stop>
            <stop stop-color="#F89921" offset="100%"></stop>
        </linearGradient>
        <linearGradient x1="954.378196%" y1="74.3998153%" x2="-112.5326%" y2="45.6965779%" id="linearGradient-2">
            <stop stop-color="#E93A25" offset="26%"></stop>
            <stop stop-color="#EA4128" offset="35%"></stop>
            <stop stop-color="#EE5531" offset="48%"></stop>
            <stop stop-color="#F16839" offset="58%"></stop>
            <stop stop-color="#F26F35" offset="69%"></stop>
            <stop stop-color="#F5832C" offset="86%"></stop>
            <stop stop-color="#F89921" offset="100%"></stop>
        </linearGradient>
        <linearGradient x1="1234.51208%" y1="64.5353168%" x2="-369.140733%" y2="45.2383568%" id="linearGradient-3">
            <stop stop-color="#E93A25" offset="26%"></stop>
            <stop stop-color="#EA4128" offset="35%"></stop>
            <stop stop-color="#EE5531" offset="48%"></stop>
            <stop stop-color="#F16839" offset="58%"></stop>
            <stop stop-color="#F26F35" offset="69%"></stop>
            <stop stop-color="#F5832C" offset="86%"></stop>
            <stop stop-color="#F89921" offset="100%"></stop>
        </linearGradient>
        <linearGradient x1="1070.6244%" y1="69.2887889%" x2="-492.023441%" y2="40.6329908%" id="linearGradient-4">
            <stop stop-color="#E93A25" offset="26%"></stop>
            <stop stop-color="#EA4128" offset="35%"></stop>
            <stop stop-color="#EE5531" offset="48%"></stop>
            <stop stop-color="#F16839" offset="58%"></stop>
            <stop stop-color="#F26F35" offset="69%"></stop>
            <stop stop-color="#F5832C" offset="86%"></stop>
            <stop stop-color="#F89921" offset="100%"></stop>
        </linearGradient>
        <linearGradient x1="619.983137%" y1="65.9630607%" x2="-405.649241%" y2="36.5435356%" id="linearGradient-5">
            <stop stop-color="#E93A25" offset="26%"></stop>
            <stop stop-color="#EA4128" offset="35%"></stop>
            <stop stop-color="#EE5531" offset="48%"></stop>
            <stop stop-color="#F16839" offset="58%"></stop>
            <stop stop-color="#F26F35" offset="69%"></stop>
            <stop stop-color="#F5832C" offset="86%"></stop>
            <stop stop-color="#F89921" offset="100%"></stop>
        </linearGradient>
        <linearGradient x1="836.609837%" y1="63.049233%" x2="-867.159331%" y2="34.8296166%" id="linearGradient-6">
            <stop stop-color="#E93A25" offset="26%"></stop>
            <stop stop-color="#EA4128" offset="35%"></stop>
            <stop stop-color="#EE5531" offset="48%"></stop>
            <stop stop-color="#F16839" offset="58%"></stop>
            <stop stop-color="#F26F35" offset="69%"></stop>
            <stop stop-color="#F5832C" offset="86%"></stop>
            <stop stop-color="#F89921" offset="100%"></stop>
        </linearGradient>
        <linearGradient x1="1418.67816%" y1="61.0683607%" x2="-2076.72414%" y2="32.162595%" id="linearGradient-7">
            <stop stop-color="#E93A25" offset="26%"></stop>
            <stop stop-color="#EA4128" offset="35%"></stop>
            <stop stop-color="#EE5531" offset="48%"></stop>
            <stop stop-color="#F16839" offset="58%"></stop>
            <stop stop-color="#F26F35" offset="69%"></stop>
            <stop stop-color="#F5832C" offset="86%"></stop>
            <stop stop-color="#F89921" offset="100%"></stop>
        </linearGradient>
        <linearGradient x1="610.822604%" y1="59.3628868%" x2="-1092.94656%" y2="31.016155%" id="linearGradient-8">
            <stop stop-color="#E93A25" offset="26%"></stop>
            <stop stop-color="#EA4128" offset="35%"></stop>
            <stop stop-color="#EE5531" offset="48%"></stop>
            <stop stop-color="#F16839" offset="58%"></stop>
            <stop stop-color="#F26F35" offset="69%"></stop>
            <stop stop-color="#F5832C" offset="86%"></stop>
            <stop stop-color="#F89921" offset="100%"></stop>
        </linearGradient>
        <linearGradient x1="443.405477%" y1="54.2603685%" x2="-1150.93965%" y2="35.2606811%" id="linearGradient-9">
            <stop stop-color="#E93A25" offset="26%"></stop>
            <stop stop-color="#EA4128" offset="35%"></stop>
            <stop stop-color="#EE5531" offset="48%"></stop>
            <stop stop-color="#F16839" offset="58%"></stop>
            <stop stop-color="#F26F35" offset="69%"></stop>
            <stop stop-color="#F5832C" offset="86%"></stop>
            <stop stop-color="#F89921" offset="100%"></stop>
        </linearGradient>
        <linearGradient x1="234.626892%" y1="52.2433804%" x2="-1372.35594%" y2="33.2923503%" id="linearGradient-10">
            <stop stop-color="#E93A25" offset="26%"></stop>
            <stop stop-color="#EA4128" offset="35%"></stop>
            <stop stop-color="#EE5531" offset="48%"></stop>
            <stop stop-color="#F16839" offset="58%"></stop>
            <stop stop-color="#F26F35" offset="69%"></stop>
            <stop stop-color="#F5832C" offset="86%"></stop>
            <stop stop-color="#F89921" offset="100%"></stop>
        </linearGradient>
        <linearGradient x1="108.894879%" y1="50.5716799%" x2="-1530.45822%" y2="31.0466139%" id="linearGradient-11">
            <stop stop-color="#E93A25" offset="26%"></stop>
            <stop stop-color="#EA4128" offset="35%"></stop>
            <stop stop-color="#EE5531" offset="48%"></stop>
            <stop stop-color="#F16839" offset="58%"></stop>
            <stop stop-color="#F26F35" offset="69%"></stop>
            <stop stop-color="#F5832C" offset="86%"></stop>
            <stop stop-color="#F89921" offset="100%"></stop>
        </linearGradient>
        <linearGradient x1="0.0605682277%" y1="49.9994289%" x2="100.122586%" y2="49.9994289%" id="linearGradient-12">
            <stop stop-color="#FDDA2D" offset="22%"></stop>
            <stop stop-color="#F06F24" offset="100%"></stop>
        </linearGradient>
        <linearGradient x1="-0.00439536754%" y1="50.0001941%" x2="99.9341768%" y2="50.0001941%" id="linearGradient-13">
            <stop stop-color="#FDDA2D" offset="22%"></stop>
            <stop stop-color="#F06F24" offset="100%"></stop>
        </linearGradient>
        <linearGradient x1="99.9809513%" y1="50.0005711%" x2="-0.0810665963%" y2="50.0005711%" id="linearGradient-14">
            <stop stop-color="#FDDA2D" offset="22%"></stop>
            <stop stop-color="#F06F24" offset="100%"></stop>
        </linearGradient>
        <linearGradient x1="100.004395%" y1="49.7522821%" x2="0.0658231945%" y2="49.7522821%" id="linearGradient-15">
            <stop stop-color="#FDDA2D" offset="22%"></stop>
            <stop stop-color="#F06F24" offset="100%"></stop>
        </linearGradient>
    </defs>
    <g id="Page-1" stroke="none" stroke-width="1" fill="none" fill-rule="evenodd">
        <g id="Solaris_EmpoweredBy_Lockup_onblack" fill-rule="nonzero">
            <path d="M41.54,9.12 C41.5255427,9.75105679 41.7733486,10.3598682 42.224403,10.8014467 C42.6754574,11.2430252 43.2893923,11.4778508 43.92,11.45 C44.8423015,11.5359732 45.7029509,10.9773786 46,10.1 L47.28,10.17 C46.8625854,11.6629311 45.4569712,12.659791 43.91,12.56 C41.8481015,12.4128155 40.2505352,10.6971451 40.2505352,8.63 C40.2505352,6.56285489 41.8481015,4.84718451 43.91,4.7 C46.08,4.7 47.39,6.17 47.39,8.42 L47.39,9.12 L41.54,9.12 Z M41.54,8.12 L46.12,8.12 C46.1704757,7.51538592 45.9557245,6.91867756 45.5315359,6.4848919 C45.1073473,6.05110624 44.5155919,5.82306125 43.91,5.86 C43.2964413,5.82140254 42.6941655,6.03781172 42.2454897,6.45809032 C41.7968139,6.87836893 41.541544,7.46523037 41.54,8.08 L41.54,8.12 Z" id="Shape" fill="url(#linearGradient-1)"></path>
            <path d="M62,7.79 L62,12.41 L60.72,12.41 L60.72,8 C60.7894885,7.47195684 60.6267659,6.93970922 60.2738818,6.54079683 C59.9209978,6.14188445 59.4125763,5.91544742 58.88,5.92 C57.8552941,5.91406224 57.0125137,6.72579285 56.98,7.75 L56.98,12.45 L55.69,12.45 L55.69,8 C55.7586071,7.47885933 55.6010555,6.95325729 55.2570907,6.55578686 C54.9131259,6.15831642 54.4155916,5.92693031 53.89,5.92 C53.3417775,5.91931427 52.8173073,6.14369906 52.4392225,6.54068809 C52.0611377,6.93767712 51.8625884,7.47246279 51.89,8.02 L51.89,12.45 L50.61,12.45 L50.61,4.87 L51.83,4.87 L51.83,6 C52.2829086,5.16275389 53.1797739,4.66362883 54.13,4.72 C55.1810797,4.68357995 56.1542281,5.2721778 56.61,6.22 C57.0923077,5.2680204 58.0834664,4.68269043 59.15,4.72 C59.9485096,4.70835238 60.7145161,5.03581336 61.2578475,5.62108617 C61.801179,6.20635898 62.0708823,6.99455735 62,7.79 Z" id="Shape" fill="url(#linearGradient-2)"></path>
            <path d="M73.32,8.63 C73.4139818,9.65196168 73.0685507,10.6656207 72.3700751,11.4175317 C71.6715994,12.1694426 70.6861067,12.5885266 69.66,12.57 C68.6182343,12.6406355 67.6171665,12.1534238 67.03,11.29 L67.03,16.21 L65.75,16.21 L65.75,4.84 L67,4.84 L67,6.09 C67.5823948,5.17877869 68.6101438,4.65153199 69.69,4.71 C70.708101,4.6974779 71.6838924,5.11666066 72.3756887,5.86372445 C73.0674851,6.61078825 73.4105817,7.61585927 73.32,8.63 Z M67.05,8.42 L67.05,8.87 C66.973214,9.54759713 67.1971277,10.2248215 67.6626979,10.723097 C68.128268,11.2213724 68.7887564,11.4906777 69.47,11.46 C70.9126158,11.3108752 72.0090103,10.0953029 72.0090103,8.645 C72.0090103,7.19469708 70.9126158,5.9791248 69.47,5.83 C68.780295,5.78397526 68.1057584,6.04656466 67.6287044,6.54679535 C67.1516505,7.04702604 66.9213321,7.73325215 67,8.42 L67.05,8.42 Z" id="Shape" fill="url(#linearGradient-3)"></path>
            <path d="M83.87,8.63 C83.8479079,10.7756374 82.0925805,12.4981747 79.9469079,12.4798071 C77.8012353,12.4614396 76.0756538,10.7091048 76.0902968,8.56340355 C76.1049398,6.41770234 77.8542766,4.68908159 80,4.7 C81.0472136,4.66523507 82.0612122,5.07018313 82.796391,5.81676004 C83.5315698,6.56333695 83.9208708,7.58344513 83.87,8.63 Z M77.37,8.63 C77.4784889,10.0416094 78.6926067,11.1093328 80.1065068,11.0365475 C81.5204068,10.9637622 82.6184679,9.77701151 82.5814326,8.36172379 C82.5443974,6.94643606 81.3857716,5.81873839 79.97,5.82 C79.2422261,5.81427932 78.5458881,6.11620788 78.0526339,6.65136012 C77.5593797,7.18651236 77.3150964,7.90510335 77.38,8.63 L77.37,8.63 Z" id="Shape" fill="url(#linearGradient-4)"></path>
            <polygon id="Shape" fill="url(#linearGradient-5)" points="93.78 12.42 91.78 6.99 89.78 12.42 88.78 12.42 85.9 4.84 87.3 4.84 89.3 10.34 91.35 4.84 92.26 4.84 94.33 10.34 96.38 4.84 97.76 4.84 94.88 12.42"></polygon>
            <path d="M100.94,9.12 C100.925543,9.75105679 101.173349,10.3598682 101.624403,10.8014467 C102.075457,11.2430252 102.689392,11.4778508 103.32,11.45 C104.259996,11.5606973 105.148886,10.9973166 105.45,10.1 L106.73,10.17 C106.312585,11.6629311 104.906971,12.659791 103.36,12.56 C101.298101,12.4128155 99.7005352,10.6971451 99.7005352,8.63 C99.7005352,6.56285489 101.298101,4.84718451 103.36,4.7 C105.53,4.7 106.84,6.17 106.84,8.42 L106.84,9.12 L100.94,9.12 Z M100.94,8.12 L105.52,8.12 C105.570476,7.51538592 105.355725,6.91867756 104.931536,6.4848919 C104.507347,6.05110624 103.915592,5.82306125 103.31,5.86 C102.696441,5.82140254 102.094165,6.03781172 101.64549,6.45809032 C101.196814,6.87836893 100.941544,7.46523037 100.94,8.08 L100.94,8.12 Z" id="Shape" fill="url(#linearGradient-6)"></path>
            <path d="M113.55,6 C112.975562,5.95776808 112.409859,6.15914625 111.991319,6.55485659 C111.572779,6.95056693 111.340021,7.50409842 111.35,8.08 L111.35,12.44 L110.07,12.44 L110.07,4.86 L111.32,4.86 L111.32,6 C111.739574,5.17034088 112.624429,4.68228197 113.55,4.77 L113.55,6 Z" id="Shape" fill="url(#linearGradient-7)"></path>
            <path d="M117.07,9.12 C117.055543,9.75105679 117.303349,10.3598682 117.754403,10.8014467 C118.205457,11.2430252 118.819392,11.4778508 119.45,11.45 C120.389996,11.5606973 121.278886,10.9973166 121.58,10.1 L122.86,10.17 C122.442585,11.6629311 121.036971,12.659791 119.49,12.56 C117.428101,12.4128155 115.830535,10.6971451 115.830535,8.63 C115.830535,6.56285489 117.428101,4.84718451 119.49,4.7 C121.66,4.7 122.97,6.17 122.97,8.42 L122.97,9.12 L117.07,9.12 Z M117.07,8.12 L121.65,8.12 C121.700476,7.51538592 121.485725,6.91867756 121.061536,6.4848919 C120.637347,6.05110624 120.045592,5.82306125 119.44,5.86 C118.826441,5.82140254 118.224165,6.03781172 117.77549,6.45809032 C117.326814,6.87836893 117.071544,7.46523037 117.07,8.08 L117.07,8.12 Z" id="Shape" fill="url(#linearGradient-8)"></path>
            <path d="M132,12.42 L132,11.19 C131.417605,12.1012213 130.389856,12.628468 129.31,12.57 C127.248101,12.4228155 125.650535,10.7071451 125.650535,8.64 C125.650535,6.57285489 127.248101,4.85718451 129.31,4.71 C130.375647,4.61270335 131.408718,5.10811678 132,6 L132,0.89 L133.28,0.89 L133.28,12.44 L132,12.42 Z M127,8.63 C126.913337,9.35209446 127.14287,10.0764209 127.629604,10.6168105 C128.116338,11.1572002 128.812806,11.4609539 129.54,11.45 C130.226595,11.4872125 130.894568,11.2192578 131.365104,10.7178667 C131.83564,10.2164757 132.060687,9.53285201 131.98,8.85 L131.98,8.4 C132.057494,7.71876612 131.831013,7.03797927 131.360868,6.53893174 C130.890722,6.0398842 130.224641,5.77323781 129.54,5.81 C128.811745,5.79569987 128.113195,6.09846303 127.625712,6.63968412 C127.138229,7.1809052 126.909898,7.90719887 127,8.63 Z" id="Shape" fill="url(#linearGradient-9)"></path>
            <path d="M143,6 C143.587166,5.13657618 144.588234,4.64936445 145.63,4.72 C147.691899,4.86718451 149.289465,6.58285489 149.289465,8.65 C149.289465,10.7171451 147.691899,12.4328155 145.63,12.58 C144.550144,12.638468 143.522395,12.1112213 142.94,11.2 L142.94,12.43 L141.72,12.43 L141.72,0.87 L143,0.87 L143,6 Z M143,8.42 L143,8.87 C142.920041,9.54921492 143.142528,10.229262 143.608482,10.7298743 C144.074437,11.2304866 144.736803,11.5011072 145.42,11.47 C146.862616,11.3208752 147.95901,10.1053029 147.95901,8.655 C147.95901,7.20469708 146.862616,5.9891248 145.42,5.84 C144.75313,5.82527487 144.111927,6.09706709 143.658778,6.58654466 C143.205629,7.07602223 142.983993,7.73624136 143.05,8.4 L143,8.42 Z" id="Shape" fill="url(#linearGradient-10)"></path>
            <polygon id="Shape" fill="url(#linearGradient-11)" points="152.54 16.21 154.34 12 151.34 4.84 152.77 4.84 155.06 10.56 157.33 4.84 158.76 4.84 153.97 16.21"></polygon>
            <path d="M40,41.89 C41.1423324,42.7969645 42.542695,43.3185995 44,43.38 C45.31,43.38 46.17,42.93 46.17,41.89 C46.17,40.85 45.4,40.43 43.7,39.99 C40.97,39.37 39.81,38.27 39.81,35.99 C39.81,33.31 41.81,31.99 44.51,31.99 C45.8371532,31.9498006 47.1472482,32.2973059 48.28,32.99 L48.28,35.69 C47.2316338,34.848265 45.934193,34.3771076 44.59,34.35 C43.31,34.35 42.59,34.97 42.59,35.84 C42.59,36.71 43.15,37.15 44.67,37.56 C47.67,38.21 48.98,39.34 48.98,41.72 C48.98,44.48 46.87,45.72 43.98,45.72 C42.5504857,45.7465961 41.1416042,45.3762021 39.91,44.65 L40,41.89 Z" id="Shape" fill="#FFFFFF"></path>
            <path d="M56.46,32 C59.2496188,31.9594616 61.7875409,33.6076035 62.885153,36.1725331 C63.9827652,38.7374627 63.4227356,41.7113133 61.4673491,43.7013083 C59.5119627,45.6913033 56.5483941,46.3034155 53.9646043,45.2509676 C51.3808145,44.1985196 49.6884047,41.6899007 49.68,38.9 C49.5835461,37.063172 50.2626798,35.2702284 51.5518442,33.9582469 C52.8410086,32.6462654 54.6217626,31.9357835 56.46,32 Z M56.46,34.53 C54.26,34.53 52.66,36.22 52.66,38.9 C52.66,41.58 54.26,43.24 56.46,43.24 C58.66,43.24 60.29,41.55 60.29,38.9 C60.29,36.25 58.72,34.52 56.46,34.52 L56.46,34.53 Z" id="Shape" fill="#FFFFFF"></path>
            <polygon id="Shape" fill="#FFFFFF" points="67.78 45.46 64.84 45.46 64.84 25.24 67.78 25.24"></polygon>
            <path d="M77,36.63 C77,35.2 75.93,34.55 74.47,34.55 C73.1299509,34.556979 71.8168049,34.9267332 70.67,35.62 L70.67,33.06 C71.9821835,32.3444576 73.4554652,31.9761372 74.95,31.99 C77.83,31.99 79.88,33.18 79.88,36.48 L79.88,45.19 C78.3994049,45.5448567 76.8825208,45.7260774 75.36,45.73 C71.94,45.73 69.45,44.73 69.45,41.73 C69.45,39.05 71.74,37.73 75.54,37.73 L77,37.73 L77,36.63 Z M77,39.69 L75.75,39.69 C73.7,39.69 72.36,40.28 72.36,41.62 C72.36,42.96 73.61,43.52 75.36,43.52 C75.8996672,43.5104142 76.4378503,43.460273 76.97,43.37 L77,39.69 Z" id="Shape" fill="#FFFFFF"></path>
            <path d="M85.14,45.46 L82.2,45.46 L82.2,33.39 C83.7767009,32.5300531 85.5440339,32.0796239 87.34,32.08 C88.1946697,32.0702413 89.0464284,32.1813403 89.87,32.41 L89.87,35.26 C89.0597281,34.9653883 88.2020021,34.822999 87.34,34.84 C86.5863438,34.8357332 85.8390802,34.9783926 85.14,35.26 L85.14,45.46 Z" id="Shape" fill="#FFFFFF"></path>
            <path d="M90.52,28.25 C90.52,27.2310346 91.3460346,26.405 92.365,26.405 C93.3839654,26.405 94.21,27.2310346 94.21,28.25 C94.21,29.2689654 93.3839654,30.095 92.365,30.095 C91.3460346,30.095 90.52,29.2689654 90.52,28.25 Z M93.85,45.46 L90.91,45.46 L90.91,32.29 L93.85,32.29 L93.85,45.46 Z" id="Shape" fill="#FFFFFF"></path>
            <path d="M95.81,41.89 C96.9523324,42.7969645 98.352695,43.3185995 99.81,43.38 C101.12,43.38 101.98,42.93 101.98,41.89 C101.98,40.85 101.21,40.43 99.51,39.99 C96.78,39.37 95.62,38.27 95.62,35.99 C95.62,33.31 97.62,31.99 100.32,31.99 C101.647153,31.9498006 102.957248,32.2973059 104.09,32.99 L104.09,35.69 C103.041261,34.8489279 101.744054,34.3778553 100.4,34.35 C99.12,34.35 98.4,34.97 98.4,35.84 C98.4,36.71 98.96,37.15 100.48,37.56 C103.48,38.21 104.79,39.34 104.79,41.72 C104.79,44.48 102.68,45.72 99.79,45.72 C98.3604857,45.7465961 96.9516042,45.3762021 95.72,44.65 L95.81,41.89 Z" id="Shape" fill="#FFFFFF"></path>
            <path d="M106.72,27.86 C108.187871,27.6491246 109.667341,27.5288968 111.15,27.5 C115.34,27.5 117.84,29.02 117.84,32.4 C117.920187,34.432901 116.412637,36.1807844 114.39,36.4 C116.92,36.61 118.61,38.09 118.61,40.65 C118.61,43.74 116.35,45.76 110.85,45.76 C109.467187,45.7495027 108.086935,45.6392162 106.72,45.43 L106.72,27.86 Z M109.66,35.35 L111.09,35.35 C113.56,35.35 114.84,34.35 114.84,32.59 C114.84,30.83 113.5,30 111.33,30 C110.774888,30.0095933 110.220721,30.0496536 109.67,30.12 L109.66,35.35 Z M109.66,43.14 C110.22,43.2 110.85,43.23 111.24,43.23 C114.09,43.23 115.55,42.31 115.55,40.47 C115.55,38.63 113.97,37.82 111.55,37.82 L109.65,37.82 L109.66,43.14 Z" id="Shape" fill="#FFFFFF"></path>
            <path d="M127.11,36.63 C127.11,35.2 126.04,34.55 124.58,34.55 C123.239951,34.556979 121.926805,34.9267332 120.78,35.62 L120.78,33.06 C122.092184,32.3444576 123.565465,31.9761372 125.06,31.99 C127.94,31.99 129.99,33.18 129.99,36.48 L129.99,45.19 C128.509405,45.5448567 126.992521,45.7260774 125.47,45.73 C122.05,45.73 119.56,44.73 119.56,41.73 C119.56,39.05 121.85,37.73 125.65,37.73 L127.11,37.73 L127.11,36.63 Z M127.11,39.69 L125.86,39.69 C123.81,39.69 122.47,40.28 122.47,41.62 C122.47,42.96 123.72,43.52 125.47,43.52 C126.006327,43.5099525 126.541151,43.4598127 127.07,43.37 L127.11,39.69 Z" id="Shape" fill="#FFFFFF"></path>
            <path d="M132.34,33.12 C134.259116,32.3974499 136.289522,32.0150567 138.34,31.99 C141.7,31.99 143.84,33.27 143.84,36.99 L143.84,45.46 L141,45.46 L141,37.26 C141,35.36 139.81,34.67 138.18,34.67 C137.216338,34.6645825 136.256779,34.7958905 135.33,35.06 L135.33,45.46 L132.39,45.46 L132.34,33.12 Z" id="Shape" fill="#FFFFFF"></path>
            <path d="M149.23,45.46 L146.29,45.46 L146.29,25.24 L149.23,25.24 L149.23,45.46 Z M149.35,38.33 L154.91,32.33 L158.54,32.33 L152.74,38.33 L158.65,45.52 L155.14,45.52 L149.35,38.33 Z" id="Shape" fill="#FFFFFF"></path>
            <path d="M8.59,22.69 C8.59,22.69 6.59,28.53 20.48,32.69 C20.48,32.69 32.77,37.53 28.74,45.79 C28.65,45.88 36.33,36.79 30.21,26.4 C29.3153598,24.9119699 28.1483318,23.6058485 26.77,22.55 C26.77,22.55 22.21,18.45 13.88,19.11 C13.2967392,19.1655285 12.7205205,19.2794322 12.16,19.45 C10.4989104,19.8572636 9.15596498,21.0760713 8.59,22.69 Z" id="Shape" fill="#FFC92C"></path>
            <path d="M28.74,45.76 C28.74,45.76 35.35,32.36 14.13,22.34 C14.13,22.34 8.13,19.99 8.53,24.01 C8.45721614,23.6166721 8.45721614,23.2133279 8.53,22.82 C8.87,21.47 10.16,18.82 16.21,19.01 C16.33,19.01 22.29,18.94 26.7,22.49 C28.9526004,24.2303774 30.6485481,26.590108 31.58,29.28 C32.1105353,30.7016348 32.4240478,32.1950329 32.51,33.71 C32.6338997,35.2104169 32.5293763,36.7209482 32.2,38.19 C31.6046044,40.9328366 30.4244183,43.5149201 28.74,45.76 Z" id="Shape" fill="url(#linearGradient-12)" style="mix-blend-mode: multiply;"></path>
            <path d="M8.65,22.51 C8.65,22.51 6.15,28.71 20.98,28.9 C21.03,28.9 34.98,29.03 31.98,39.2 C32.5223933,37.3382261 32.7089842,35.3908954 32.53,33.46 C32.2754564,30.2485902 31.0514238,27.1902525 29.02,24.69 C27.714755,23.1220855 26.1014322,21.8389153 24.28,20.92 C23.1975119,20.3713395 22.0571022,19.9453629 20.88,19.65 C19.1336988,19.2135013 17.340021,18.9951697 15.54,19 C12.5,19 9.6,19.8 8.65,22.51 Z" id="Shape" fill="url(#linearGradient-13)" style="mix-blend-mode: multiply;"></path>
            <path d="M24.52,47.77 C24.52,47.77 26.52,41.93 12.63,37.77 C12.63,37.77 0.34,32.93 4.37,24.67 C4.46,24.58 -3.22,33.67 2.9,44.06 C3.79464019,45.5480301 4.96166816,46.8541515 6.34,47.91 C6.34,47.91 10.9,52.01 19.23,51.35 C19.8132608,51.2944715 20.3894795,51.1805678 20.95,51.01 C22.6110896,50.6027364 23.954035,49.3839287 24.52,47.77 Z" id="Shape" fill="#FFC92C"></path>
            <path d="M4.36,24.7 C4.36,24.7 -2.25,38.1 18.97,48.12 C18.97,48.12 24.97,50.47 24.57,46.45 C24.6427839,46.8433279 24.6427839,47.2466721 24.57,47.64 C24.23,48.99 22.94,51.64 16.89,51.45 C16.77,51.45 10.81,51.52 6.4,47.97 C4.14739965,46.2296226 2.45145187,43.869892 1.52,41.18 C0.989464662,39.7583652 0.675952191,38.2649671 0.59,36.75 C0.466100323,35.2495831 0.570623698,33.7390518 0.9,32.27 C1.49539561,29.5271634 2.67558174,26.9450799 4.36,24.7 Z" id="Shape" fill="url(#linearGradient-14)" style="mix-blend-mode: multiply;"></path>
            <path d="M24.46,48 C24.46,48 26.96,41.8 12.13,41.61 C12.08,41.61 -1.87,41.48 1.13,31.31 C0.587606735,33.1717739 0.40101582,35.1191046 0.58,37.05 C0.834543606,40.2614098 2.05857616,43.3197475 4.09,45.82 C5.39524503,47.3879145 7.00856782,48.6710847 8.83,49.59 C9.91248807,50.1386605 11.0528978,50.5646371 12.23,50.86 C13.9763012,51.2964987 15.769979,51.5148303 17.57,51.51 C20.6,51.47 23.5,50.66 24.46,48 Z" id="Shape" fill="url(#linearGradient-15)" style="mix-blend-mode: multiply;"></path>
        </g>
    </g>
</svg>